<?xml version="1.0" encoding="UTF-8" standalone="no"?>
<!DOCTYPE svg PUBLIC "-//W3C//DTD SVG 1.1//EN" "http://www.w3.org/Graphics/SVG/1.1/DTD/svg11.dtd">
<svg width="100%" height="100%" viewBox="0 0 32 32" version="1.1" xmlns="http://www.w3.org/2000/svg" xmlns:xlink="http://www.w3.org/1999/xlink" xml:space="preserve" xmlns:serif="http://www.serif.com/" style="fill-rule:evenodd;clip-rule:evenodd;stroke-linejoin:round;stroke-miterlimit:2;">
    <g id="Layer1">
        <path d="M23.071,23.071L21.143,23.071C20.315,23.071 19.643,23.744 19.643,24.571C19.643,25.399 20.315,26.071 21.143,26.071L23.071,26.071L23.071,28C23.071,28.828 23.744,29.5 24.571,29.5C25.399,29.5 26.071,28.828 26.071,28L26.071,26.071L28,26.071C28.828,26.071 29.5,25.399 29.5,24.571C29.5,23.744 28.828,23.071 28,23.071L26.071,23.071L26.071,21.143C26.071,20.315 25.399,19.643 24.571,19.643C23.744,19.643 23.071,20.315 23.071,21.143L23.071,23.071Z"/>
        <g transform="matrix(1,0,0,0.96,-3.09917e-11,0.782489)">
            <path d="M16,27.438L5.751,27.438C6.013,26.451 6.552,25.148 7.656,23.992C9.184,22.391 11.755,21.134 16,21.134C17.013,21.134 17.934,21.206 18.77,21.338C19.589,21.467 20.354,20.879 20.478,20.027C20.602,19.174 20.038,18.377 19.22,18.248C18.248,18.094 17.178,18.009 16,18.009C10.644,18.009 7.456,19.769 5.528,21.789C2.474,24.988 2.5,29 2.5,29C2.5,29.863 3.172,30.562 4,30.563L16,30.563C16.828,30.562 17.5,29.862 17.5,29C17.5,28.138 16.828,27.437 16,27.438Z"/>
        </g>
        <g transform="matrix(1,0,0,0.96,-3.09917e-11,0.782489)">
            <path d="M16,2.438C11.844,2.438 8.5,5.844 8.5,10C8.5,14.156 11.844,17.563 16,17.563C20.156,17.563 23.5,14.156 23.5,10C23.5,5.844 20.156,2.438 16,2.438ZM16,5.563C18.467,5.563 20.5,7.533 20.5,10C20.5,12.467 18.467,14.437 16,14.437C13.533,14.437 11.5,12.467 11.5,10C11.5,7.533 13.533,5.563 16,5.563Z"/>
        </g>
    </g>
</svg>
