<?xml version="1.0" encoding="UTF-8" standalone="no"?>
<!DOCTYPE svg PUBLIC "-//W3C//DTD SVG 1.1//EN" "http://www.w3.org/Graphics/SVG/1.1/DTD/svg11.dtd">
<svg width="100%" height="100%" viewBox="0 0 32 32" version="1.1" xmlns="http://www.w3.org/2000/svg" xmlns:xlink="http://www.w3.org/1999/xlink" xml:space="preserve" xmlns:serif="http://www.serif.com/" style="fill-rule:evenodd;clip-rule:evenodd;stroke-linejoin:round;stroke-miterlimit:2;">
    <g id="Layer1">
        <g transform="matrix(1.71429,0,0,1.71429,-397.143,-350.235)">
            <path d="M241,220.125L235.178,220.125C235.097,220.125 235.02,220.093 234.964,220.036C234.907,219.98 234.875,219.903 234.875,219.822L234.875,208.243C234.875,208.086 235.003,207.958 235.16,207.958C235.16,207.958 246.849,207.958 246.849,207.958C246.922,207.958 246.992,207.987 247.044,208.039C247.096,208.091 247.125,208.161 247.125,208.235L247.125,213C247.125,213.483 247.517,213.875 248,213.875C248.483,213.875 248.875,213.483 248.875,213C248.875,213 248.875,209.956 248.875,208.235C248.875,207.697 248.662,207.182 248.281,206.802C247.901,206.422 247.386,206.208 246.849,206.208C244.219,206.208 237.797,206.208 235.16,206.208C234.036,206.208 233.125,207.119 233.125,208.243C233.125,210.858 233.125,217.191 233.125,219.822C233.125,220.367 233.341,220.889 233.726,221.274C234.111,221.659 234.633,221.875 235.178,221.875L241,221.875C241.483,221.875 241.875,221.483 241.875,221C241.875,220.517 241.483,220.125 241,220.125Z"/>
        </g>
        <g transform="matrix(1.71429,0,0,1.71429,-397.143,-350.857)">
            <path d="M245.125,217L245.125,221C245.125,221.483 245.517,221.875 246,221.875C246.483,221.875 246.875,221.483 246.875,221L246.875,217C246.875,216.517 246.483,216.125 246,216.125C245.517,216.125 245.125,216.517 245.125,217Z"/>
        </g>
        <g transform="matrix(1.71429,0,0,1.71429,-397.143,-350.857)">
            <path d="M244,219.875L248,219.875C248.483,219.875 248.875,219.483 248.875,219C248.875,218.517 248.483,218.125 248,218.125L244,218.125C243.517,218.125 243.125,218.517 243.125,219C243.125,219.483 243.517,219.875 244,219.875Z"/>
        </g>
        <g transform="matrix(1,0,0,1,-4.71429,-0.877511)">
            <path d="M12.988,18.678L17.988,23.25C18.3,23.535 18.718,23.676 19.14,23.636C19.561,23.597 19.946,23.381 20.2,23.043L27.057,13.9C27.554,13.238 27.419,12.297 26.757,11.8C26.095,11.303 25.154,11.438 24.657,12.1L18.792,19.92C18.792,19.92 15.012,16.464 15.012,16.464C14.401,15.906 13.452,15.948 12.893,16.559C12.334,17.17 12.377,18.12 12.988,18.678Z"/>
        </g>
    </g>
</svg>
