<?xml version="1.0" encoding="UTF-8" standalone="no"?>
<!DOCTYPE svg PUBLIC "-//W3C//DTD SVG 1.1//EN" "http://www.w3.org/Graphics/SVG/1.1/DTD/svg11.dtd">
<svg width="100%" height="100%" viewBox="0 0 32 32" version="1.1" xmlns="http://www.w3.org/2000/svg" xmlns:xlink="http://www.w3.org/1999/xlink" xml:space="preserve" xmlns:serif="http://www.serif.com/" style="fill-rule:evenodd;clip-rule:evenodd;stroke-linecap:round;stroke-linejoin:round;stroke-miterlimit:1.5;">
    <g id="Layer1">
        <g transform="matrix(1.71429,0,0,1.71429,-397.143,-350.235)">
            <path d="M241,221L238.261,221C237.611,221 237.083,220.473 237.083,219.822L237.083,207.797C237.083,207.156 237.603,206.637 238.243,206.637C239.904,206.637 243.009,206.637 245.271,206.637L248,209.366L248,213" style="fill:none;stroke:black;stroke-width:1.75px;"/>
        </g>
        <g transform="matrix(1.71429,0,0,1.71429,-397.143,-350.857)">
            <path d="M246,217L246,221" style="fill:none;stroke:black;stroke-width:1.75px;"/>
        </g>
        <g transform="matrix(1.71429,0,0,1.71429,-397.143,-350.857)">
            <path d="M244,219L248,219" style="fill:none;stroke:black;stroke-width:1.75px;"/>
        </g>
        <path d="M22,4L22,10.018C22,10.56 22.44,11 22.982,11C24.683,11 28,11 28,11" style="fill:none;stroke:black;stroke-width:3px;stroke-linecap:butt;"/>
    </g>
</svg>
