<?xml version="1.0" encoding="UTF-8" standalone="no"?>
<!DOCTYPE svg PUBLIC "-//W3C//DTD SVG 1.1//EN" "http://www.w3.org/Graphics/SVG/1.1/DTD/svg11.dtd">
<svg width="100%" height="100%" viewBox="0 0 32 32" version="1.1" xmlns="http://www.w3.org/2000/svg" xmlns:xlink="http://www.w3.org/1999/xlink" xml:space="preserve" xmlns:serif="http://www.serif.com/" style="fill-rule:evenodd;clip-rule:evenodd;stroke-linejoin:round;stroke-miterlimit:2;">
    <g id="Layer1">
        <g transform="matrix(1,0,0,1,1,-6.11067e-13)">
            <path d="M28.5,10.985C28.5,10.061 28.133,9.175 27.479,8.521C26.825,7.867 25.939,7.5 25.015,7.5C20.511,7.5 9.56,7.5 5.022,7.5C3.077,7.5 1.5,9.077 1.5,11.022C1.5,14.67 1.5,22.316 1.5,25.97C1.5,27.92 3.08,29.5 5.029,29.5L24.987,29.5C25.919,29.5 26.812,29.13 27.471,28.471C28.13,27.812 28.5,26.919 28.5,25.987C28.5,22.327 28.5,14.625 28.5,10.985ZM25.5,10.985C25.5,14.625 25.5,22.327 25.5,25.987C25.5,26.123 25.446,26.254 25.35,26.35C25.254,26.446 25.123,26.5 24.987,26.5L5.03,26.5C4.737,26.5 4.5,26.263 4.5,25.97L4.5,11.022C4.5,10.734 4.734,10.5 5.022,10.5C5.022,10.5 25.015,10.5 25.015,10.5C25.143,10.5 25.267,10.551 25.358,10.642C25.449,10.733 25.5,10.857 25.5,10.985Z"/>
        </g>
        <path d="M4,16.5L28,16.5L28,13.5L4,13.5L4,16.5Z"/>
        <path d="M8.5,4L8.5,11C8.5,11.828 9.172,12.5 10,12.5C10.828,12.5 11.5,11.828 11.5,11L11.5,4C11.5,3.172 10.828,2.5 10,2.5C9.172,2.5 8.5,3.172 8.5,4Z"/>
        <g transform="matrix(1,0,0,1,12,0)">
            <path d="M8.5,4L8.5,11C8.5,11.828 9.172,12.5 10,12.5C10.828,12.5 11.5,11.828 11.5,11L11.5,4C11.5,3.172 10.828,2.5 10,2.5C9.172,2.5 8.5,3.172 8.5,4Z"/>
        </g>
        <g transform="matrix(2,0,0,2,-9,-19)">
            <rect x="9" y="19" width="1" height="1"/>
        </g>
        <g transform="matrix(2,0,0,2,-9,-19)">
            <path d="M10.75,19C10.75,18.586 10.414,18.25 10,18.25L9,18.25C8.586,18.25 8.25,18.586 8.25,19L8.25,20C8.25,20.414 8.586,20.75 9,20.75L10,20.75C10.414,20.75 10.75,20.414 10.75,20L10.75,19Z" style="fill:none;"/>
        </g>
        <g transform="matrix(2,0,0,2,-9,-15.581)">
            <rect x="9" y="19" width="1" height="1"/>
        </g>
        <g transform="matrix(2,0,0,2,-9,-15.581)">
            <path d="M10.75,19C10.75,18.586 10.414,18.25 10,18.25L9,18.25C8.586,18.25 8.25,18.586 8.25,19L8.25,20C8.25,20.414 8.586,20.75 9,20.75L10,20.75C10.414,20.75 10.75,20.414 10.75,20L10.75,19Z" style="fill:none;"/>
        </g>
        <g transform="matrix(2,0,0,2,-3,-19)">
            <rect x="9" y="19" width="1" height="1"/>
        </g>
        <g transform="matrix(2,0,0,2,-3,-19)">
            <path d="M10.75,19C10.75,18.586 10.414,18.25 10,18.25L9,18.25C8.586,18.25 8.25,18.586 8.25,19L8.25,20C8.25,20.414 8.586,20.75 9,20.75L10,20.75C10.414,20.75 10.75,20.414 10.75,20L10.75,19Z" style="fill:none;"/>
        </g>
        <g transform="matrix(2,0,0,2,-3,-15.581)">
            <rect x="9" y="19" width="1" height="1"/>
        </g>
        <g transform="matrix(2,0,0,2,-3,-15.581)">
            <path d="M10.75,19C10.75,18.586 10.414,18.25 10,18.25L9,18.25C8.586,18.25 8.25,18.586 8.25,19L8.25,20C8.25,20.414 8.586,20.75 9,20.75L10,20.75C10.414,20.75 10.75,20.414 10.75,20L10.75,19Z" style="fill:none;"/>
        </g>
        <g transform="matrix(2,0,0,2,3,-19)">
            <rect x="9" y="19" width="1" height="1"/>
        </g>
        <g transform="matrix(2,0,0,2,3,-19)">
            <path d="M10.75,19C10.75,18.586 10.414,18.25 10,18.25L9,18.25C8.586,18.25 8.25,18.586 8.25,19L8.25,20C8.25,20.414 8.586,20.75 9,20.75L10,20.75C10.414,20.75 10.75,20.414 10.75,20L10.75,19Z" style="fill:none;"/>
        </g>
    </g>
</svg>
