<?xml version="1.0" encoding="UTF-8" standalone="no"?>
<!DOCTYPE svg PUBLIC "-//W3C//DTD SVG 1.1//EN" "http://www.w3.org/Graphics/SVG/1.1/DTD/svg11.dtd">
<svg width="100%" height="100%" viewBox="0 0 32 32" version="1.1" xmlns="http://www.w3.org/2000/svg" xmlns:xlink="http://www.w3.org/1999/xlink" xml:space="preserve" xmlns:serif="http://www.serif.com/" style="fill-rule:evenodd;clip-rule:evenodd;stroke-linejoin:round;stroke-miterlimit:1.5;">
    <g transform="matrix(0.923077,0,0,0.923077,1.23077,1.23077)">
        <g id="cog">
            <path d="M17.796,3.125C16.604,2.958 15.396,2.958 14.204,3.125L13.505,6.634C12.325,6.949 11.215,7.483 10.233,8.21L7.053,6.568C6.181,7.396 5.427,8.341 4.814,9.377L7.122,12.111C6.632,13.23 6.358,14.431 6.314,15.652L3.048,17.114C3.151,18.313 3.42,19.491 3.847,20.616L7.424,20.516C7.993,21.597 8.762,22.561 9.689,23.356L8.795,26.821C9.797,27.488 10.886,28.012 12.032,28.38L14.184,25.521C15.384,25.75 16.616,25.75 17.816,25.521L19.968,28.38C21.114,28.012 22.203,27.488 23.205,26.821L22.311,23.356C23.238,22.561 24.007,21.597 24.576,20.516L28.153,20.616C28.58,19.491 28.849,18.313 28.952,17.114L25.686,15.652C25.642,14.431 25.368,13.23 24.878,12.111L27.186,9.377C26.573,8.341 25.819,7.396 24.947,6.568L21.767,8.21C20.785,7.483 19.675,6.949 18.495,6.634L17.796,3.125ZM16,12.187C18.104,12.187 19.813,13.896 19.813,16C19.813,18.104 18.104,19.813 16,19.813C13.896,19.813 12.187,18.104 12.187,16C12.187,13.896 13.896,12.187 16,12.187Z" style="fill:none;stroke:black;stroke-width:3.25px;"/>
        </g>
    </g>
</svg>
