<?xml version="1.0" encoding="UTF-8" standalone="no"?>
<!DOCTYPE svg PUBLIC "-//W3C//DTD SVG 1.1//EN" "http://www.w3.org/Graphics/SVG/1.1/DTD/svg11.dtd">
<svg width="100%" height="100%" viewBox="0 0 32 32" version="1.1" xmlns="http://www.w3.org/2000/svg" xmlns:xlink="http://www.w3.org/1999/xlink" xml:space="preserve" xmlns:serif="http://www.serif.com/" style="fill-rule:evenodd;clip-rule:evenodd;stroke-linejoin:round;stroke-miterlimit:2;">
    <path d="M16,12.868L7.566,4.434C6.702,3.57 5.298,3.57 4.434,4.434C3.57,5.298 3.57,6.702 4.434,7.566L12.868,16L4.434,24.434C3.57,25.298 3.57,26.702 4.434,27.566C5.298,28.43 6.702,28.43 7.566,27.566L16,19.132L24.434,27.566C25.298,28.43 26.702,28.43 27.566,27.566C28.43,26.702 28.43,25.298 27.566,24.434L19.132,16L27.566,7.566C28.43,6.702 28.43,5.298 27.566,4.434C26.702,3.57 25.298,3.57 24.434,4.434L16,12.868Z"/>
</svg>
