<?xml version="1.0" encoding="UTF-8" standalone="no"?>
<!DOCTYPE svg PUBLIC "-//W3C//DTD SVG 1.1//EN" "http://www.w3.org/Graphics/SVG/1.1/DTD/svg11.dtd">
<svg width="100%" height="100%" viewBox="0 0 32 32" version="1.1" xmlns="http://www.w3.org/2000/svg" xmlns:xlink="http://www.w3.org/1999/xlink" xml:space="preserve" xmlns:serif="http://www.serif.com/" style="fill-rule:evenodd;clip-rule:evenodd;stroke-linejoin:round;stroke-miterlimit:2;">
    <g id="Layer2">
        <g transform="matrix(1,0,0,1,-0.5,0)">
            <path d="M19,5.033C19,3.91 18.09,3 16.967,3C16.639,3 16.299,3 15.973,3C14.883,3 14,3.883 14,4.973C14,8.422 14,15.514 14,18.99C14,19.523 14.212,20.034 14.589,20.411C14.966,20.788 15.477,21 16.01,21C16.352,21 16.707,21 17.048,21C17.565,21 18.062,20.794 18.428,20.428C18.794,20.062 19,19.565 19,19.048C19,15.613 19,8.524 19,5.033Z"/>
        </g>
        <g transform="matrix(1,0,0,1,-0.5,0)">
            <path d="M20.5,19.048L20.5,5.033C20.5,3.082 18.918,1.5 16.967,1.5L15.973,1.5C14.055,1.5 12.5,3.055 12.5,4.973C12.5,8.422 12.5,15.514 12.5,18.99C12.5,19.921 12.87,20.814 13.528,21.472C14.186,22.13 15.079,22.5 16.01,22.5C16.352,22.5 16.707,22.5 17.048,22.5C17.963,22.5 18.841,22.136 19.489,21.489C20.136,20.841 20.5,19.963 20.5,19.048ZM17.5,5.033L17.5,19.048C17.5,19.168 17.452,19.283 17.368,19.368C17.283,19.452 17.168,19.5 17.048,19.5L16.01,19.5C15.875,19.5 15.745,19.446 15.649,19.351C15.554,19.255 15.5,19.125 15.5,18.99L15.5,4.973C15.5,4.712 15.712,4.5 15.973,4.5C15.973,4.5 16.967,4.5 16.967,4.5C17.261,4.5 17.5,4.739 17.5,5.033Z" style="fill:none;"/>
        </g>
        <g transform="matrix(0.833333,0,0,0.833333,0.166667,7.33333)">
            <circle cx="19" cy="23" r="3"/>
        </g>
        <g transform="matrix(0.833333,0,0,0.833333,0.166667,7.33333)">
            <path d="M19,18.2C16.351,18.2 14.2,20.351 14.2,23C14.2,25.649 16.351,27.8 19,27.8C21.649,27.8 23.8,25.649 23.8,23C23.8,20.351 21.649,18.2 19,18.2ZM19,21.8C19.662,21.8 20.2,22.338 20.2,23C20.2,23.662 19.662,24.2 19,24.2C18.338,24.2 17.8,23.662 17.8,23C17.8,22.338 18.338,21.8 19,21.8Z" style="fill:none;"/>
        </g>
    </g>
</svg>
