<?xml version="1.0" encoding="UTF-8" standalone="no"?>
<!DOCTYPE svg PUBLIC "-//W3C//DTD SVG 1.1//EN" "http://www.w3.org/Graphics/SVG/1.1/DTD/svg11.dtd">
<svg width="100%" height="100%" viewBox="0 0 32 32" version="1.1" xmlns="http://www.w3.org/2000/svg" xmlns:xlink="http://www.w3.org/1999/xlink" xml:space="preserve" xmlns:serif="http://www.serif.com/" style="fill-rule:evenodd;clip-rule:evenodd;stroke-linejoin:round;stroke-miterlimit:2;">
    <g id="Layer2" transform="matrix(1,0,0,1.26667,0,-4.26667)">
        <g transform="matrix(1,0,0,0.789474,0,3.36842)">
            <path d="M19.43,15.314C19.476,15.536 19.5,15.765 19.5,16C19.5,17.895 17.932,19.433 16,19.433C15.702,19.433 15.413,19.397 15.136,19.328L19.43,15.314ZM12.514,16.304C12.505,16.204 12.5,16.102 12.5,16C12.5,14.105 14.068,12.567 16,12.567C16.162,12.567 16.322,12.577 16.478,12.598L12.514,16.304Z"/>
        </g>
        <g transform="matrix(1,0,0,0.789474,0,3.36842)">
            <path d="M25.196,9.924L22.343,12.591C23.899,13.75 25.296,15.026 26.293,16C25.238,17.03 23.737,18.398 22.072,19.609C20.103,21.041 17.908,22.3 16,22.3C15.013,22.3 13.948,21.963 12.878,21.439L9.838,24.281C11.9,25.576 14.079,26.5 16,26.5C18.389,26.5 21.177,25.071 23.642,23.277C26.923,20.89 29.627,17.938 29.912,17.623C29.952,17.579 29.991,17.533 30.028,17.485C30.137,17.344 30.227,17.186 30.298,17.018L30.314,16.98C30.438,16.676 30.499,16.343 30.5,16.011L30.5,15.989C30.499,15.657 30.438,15.324 30.314,15.02L30.298,14.982C30.227,14.814 30.137,14.656 30.028,14.515C29.991,14.467 29.952,14.421 29.912,14.377C29.673,14.114 27.742,12.004 25.196,9.924ZM6.557,21.872L9.399,19.215C7.947,18.109 6.649,16.92 5.707,16C6.762,14.97 8.263,13.602 9.928,12.391C11.897,10.959 14.092,9.7 16,9.7C16.892,9.7 17.848,9.975 18.813,10.415L21.882,7.546C19.904,6.343 17.834,5.5 16,5.5C13.611,5.5 10.823,6.929 8.358,8.723C5.077,11.11 2.373,14.062 2.088,14.377C2.048,14.421 2.009,14.467 1.972,14.515C1.863,14.656 1.773,14.814 1.702,14.982L1.686,15.02C1.562,15.324 1.501,15.657 1.5,15.989L1.5,16.011C1.501,16.343 1.562,16.676 1.686,16.98L1.702,17.018C1.773,17.186 1.863,17.344 1.972,17.485C2.009,17.533 2.048,17.579 2.088,17.623C2.319,17.878 4.133,19.86 6.557,21.872Z"/>
        </g>
        <g transform="matrix(1,0,0,0.789474,0,3.36842)">
            <path d="M26.146,4.587L3.146,26.087C2.642,26.558 2.616,27.35 3.087,27.854C3.558,28.358 4.35,28.384 4.854,27.913L27.854,6.413C28.358,5.942 28.384,5.15 27.913,4.646C27.442,4.142 26.65,4.116 26.146,4.587Z"/>
        </g>
    </g>
</svg>
