<?xml version="1.0" encoding="UTF-8" standalone="no"?>
<!DOCTYPE svg PUBLIC "-//W3C//DTD SVG 1.1//EN" "http://www.w3.org/Graphics/SVG/1.1/DTD/svg11.dtd">
<svg width="100%" height="100%" viewBox="0 0 32 32" version="1.1" xmlns="http://www.w3.org/2000/svg" xmlns:xlink="http://www.w3.org/1999/xlink" xml:space="preserve" xmlns:serif="http://www.serif.com/" style="fill-rule:evenodd;clip-rule:evenodd;stroke-linejoin:round;stroke-miterlimit:2;">
    <g id="Layer1">
        <g transform="matrix(1.71429,0,0,1.71429,-399.786,-350.546)">
            <path d="M248.875,219.824L248.875,209.366C248.875,209.134 248.783,208.911 248.619,208.747L245.89,206.018C245.726,205.854 245.503,205.762 245.271,205.762L238.243,205.762C237.119,205.762 236.208,206.673 236.208,207.797L236.208,219.822C236.208,220.956 237.127,221.875 238.261,221.875L246.824,221.875C247.368,221.875 247.89,221.659 248.274,221.274C248.659,220.89 248.875,220.368 248.875,219.824ZM247.125,219.824C247.125,219.904 247.093,219.98 247.037,220.037C246.98,220.093 246.904,220.125 246.824,220.125L238.261,220.125C238.094,220.125 237.958,219.99 237.958,219.822C237.958,219.822 237.958,207.797 237.958,207.797C237.958,207.639 238.086,207.512 238.243,207.512C238.243,207.512 244.909,207.512 244.909,207.512C244.909,207.512 247.125,209.728 247.125,209.728L247.125,219.824Z"/>
        </g>
        <g transform="matrix(1,0,0,1,-2.64286,-0.311244)">
            <path d="M23.5,9.5L23.5,4L20.5,4L20.5,10.018C20.5,11.389 21.611,12.5 22.982,12.5L28,12.5L28,9.5L23.5,9.5Z"/>
        </g>
        <g transform="matrix(1,0,0,1,-2.64286,1.68876)">
            <path d="M12,11L17,11L17,9L12,9L12,11Z"/>
        </g>
        <g transform="matrix(1,0,0,1,-2.64286,1.68876)">
            <path d="M12,17.311L23,17.311L23,15.311L12,15.311L12,17.311Z"/>
        </g>
        <g transform="matrix(1,0,0,1,-2.64286,1.68876)">
            <path d="M12,22L23,22L23,20L12,20L12,22Z"/>
        </g>
    </g>
</svg>
