<?xml version="1.0" encoding="UTF-8" standalone="no"?>
<!DOCTYPE svg PUBLIC "-//W3C//DTD SVG 1.1//EN" "http://www.w3.org/Graphics/SVG/1.1/DTD/svg11.dtd">
<svg width="100%" height="100%" viewBox="0 0 32 32" version="1.1" xmlns="http://www.w3.org/2000/svg" xmlns:xlink="http://www.w3.org/1999/xlink" xml:space="preserve" xmlns:serif="http://www.serif.com/" style="fill-rule:evenodd;clip-rule:evenodd;stroke-linejoin:round;stroke-miterlimit:2;">
    <g id="Layer2" transform="matrix(1,0,0,1.26667,0,-4.26667)">
        <g transform="matrix(1.07407,0,0,1.10526,-1.18519,-1.68421)">
            <path d="M3.047,14.841C3.01,14.872 2.974,14.905 2.939,14.939C2.838,15.04 2.754,15.153 2.688,15.273L2.673,15.3C2.558,15.517 2.501,15.755 2.5,15.992L2.5,16.008C2.501,16.245 2.558,16.483 2.673,16.7L2.688,16.727C2.754,16.847 2.838,16.96 2.939,17.061C2.974,17.095 3.01,17.128 3.047,17.159C3.313,17.384 5.83,19.493 8.885,21.198C11.18,22.479 13.776,23.5 16,23.5C18.224,23.5 20.82,22.479 23.115,21.198C26.17,19.493 28.687,17.384 28.953,17.159C28.99,17.128 29.026,17.095 29.061,17.061C29.162,16.96 29.246,16.847 29.312,16.727L29.327,16.7C29.442,16.483 29.499,16.245 29.5,16.008L29.5,15.992C29.499,15.755 29.442,15.517 29.327,15.3L29.312,15.273C29.246,15.153 29.162,15.04 29.061,14.939C29.026,14.905 28.99,14.872 28.953,14.841C28.687,14.616 26.17,12.507 23.115,10.802C20.82,9.521 18.224,8.5 16,8.5C13.776,8.5 11.18,9.521 8.885,10.802C5.83,12.507 3.313,14.616 3.047,14.841ZM25.583,16C24.601,15.264 23.203,14.287 21.653,13.422C19.82,12.399 17.776,11.5 16,11.5C14.224,11.5 12.18,12.399 10.347,13.422C8.797,14.287 7.399,15.264 6.417,16C7.399,16.736 8.797,17.713 10.347,18.578C12.18,19.601 14.224,20.5 16,20.5C17.776,20.5 19.82,19.601 21.653,18.578C23.203,17.713 24.601,16.736 25.583,16Z"/>
        </g>
        <g transform="matrix(1,0,0,0.774436,0,3.60902)">
            <circle cx="16" cy="16" r="3.5"/>
        </g>
    </g>
</svg>
