<?xml version="1.0" encoding="UTF-8" standalone="no"?>
<!DOCTYPE svg PUBLIC "-//W3C//DTD SVG 1.1//EN" "http://www.w3.org/Graphics/SVG/1.1/DTD/svg11.dtd">
<svg width="100%" height="100%" viewBox="0 0 32 32" version="1.1" xmlns="http://www.w3.org/2000/svg" xmlns:xlink="http://www.w3.org/1999/xlink" xml:space="preserve" xmlns:serif="http://www.serif.com/" style="fill-rule:evenodd;clip-rule:evenodd;stroke-linecap:round;stroke-linejoin:round;stroke-miterlimit:1.5;">
    <g transform="matrix(1,0,0,1,0,0.622489)">
        <path d="M4,9L28,9" style="fill:none;stroke:black;stroke-width:2px;"/>
    </g>
    <g id="Layer1">
    </g>
    <g transform="matrix(1,0,0,1,0,0.622489)">
        <g id="Layer2">
            <path d="M7,9L7,26C7,26.943 8.057,28 9,28L23,28C23.943,28 25,26.943 25,26L25,9" style="fill:none;stroke:black;stroke-width:2px;"/>
        </g>
    </g>
    <g id="Layer4">
        <g transform="matrix(1,0,0,1,0,0.622489)">
            <path d="M13,9L13,28" style="fill:none;stroke:black;stroke-width:2px;"/>
        </g>
        <g transform="matrix(1,0,0,1,0,0.622489)">
            <path d="M19,9L19,28" style="fill:none;stroke:black;stroke-width:2px;"/>
        </g>
    </g>
    <g transform="matrix(1,0,0,1,0,0.622489)">
        <g id="Layer3">
            <path d="M11,8L11,4C11,2.255 21,2.428 21,4L21,8" style="fill:none;stroke:black;stroke-width:2px;"/>
        </g>
    </g>
</svg>
